<svg xmlns="http://www.w3.org/2000/svg" viewBox="0 0 89.758 89.758"><g fill="#fff"><path d="M58.26 23.88H31.5c-4.27 0-7.74 3.47-7.74 7.74v26.76c0 4.27 3.47 7.74 7.74 7.74h26.75c4.27 0 7.75-3.47 7.75-7.74V31.62c0-4.27-3.47-7.74-7.74-7.74zM44.88 58.9c-7.67 0-13.9-6.23-13.9-13.9s6.23-13.9 13.9-13.9 13.9 6.23 13.9 13.9-6.23 13.9-13.9 13.9zm14.35-24.93c-1.8 0-3.3-1.48-3.3-3.3 0-1.8 1.5-3.28 3.3-3.28 1.82 0 3.3 1.47 3.3 3.28 0 1.8-1.48 3.3-3.3 3.3z"/><path d="M44.88 36.97c-4.43 0-8.03 3.6-8.03 8.03s3.6 8.03 8.03 8.03 8.03-3.6 8.03-8.03-3.6-8.03-8.02-8.03z"/><path d="M44.88 0C20.08 0 0 20.1 0 44.88s20.1 44.88 44.88 44.88 44.88-20.1 44.88-44.88C89.76 20.08 69.66 0 44.88 0zm27 58.38c0 7.5-6.1 13.62-13.62 13.62H31.5c-7.5 0-13.62-6.1-13.62-13.62V31.62c0-7.5 6.1-13.62 13.62-13.62h26.75c7.52 0 13.62 6.1 13.62 13.62v26.76z"/></g></svg>