<svg xmlns="http://www.w3.org/2000/svg" width="66" height="32" viewBox="0 0 66 32">
  <metadata><?xpacket begin="﻿" id="W5M0MpCehiHzreSzNTczkc9d"?>
<x:xmpmeta xmlns:x="adobe:ns:meta/" x:xmptk="Adobe XMP Core 5.6-c138 79.159824, 2016/09/14-01:09:01        ">
   <rdf:RDF xmlns:rdf="http://www.w3.org/1999/02/22-rdf-syntax-ns#">
      <rdf:Description rdf:about=""/>
   </rdf:RDF>
</x:xmpmeta>
                                                                                                    
                                                                                                    
                                                                                                    
                                                                                                    
                                                                                                    
                                                                                                    
                                                                                                    
                                                                                                    
                                                                                                    
                                                                                                    
                                                                                                    
                                                                                                    
                                                                                                    
                                                                                                    
                                                                                                    
                                                                                                    
                                                                                                    
                                                                                                    
                                                                                                    
                                                                                                    
                           
<?xpacket end="w"?></metadata>
<defs>
    <style>
      .cls-1 {
        fill: #fff;
        fill-rule: evenodd;
      }
    </style>
  </defs>
  <path id="logo.png" class="cls-1" d="M97.032,104.192a1.036,1.036,0,0,0,0,2.072h63.684a1.036,1.036,0,0,0,0-2.072h-2.05v-4.12h2.05a1.036,1.036,0,0,0,0-2.073H97.032a1.036,1.036,0,0,0,0,2.073h2.05v4.12h-2.05Zm51.354,0H146.34v-4.12h2.046v4.12Zm2.062-4.12H152.5v4.12h-2.047v-4.12Zm-6.171,4.12h-2.046v-4.12h2.046v4.12Zm-4.108,0h-2.047v-4.12h2.047v4.12Zm-4.109,0h-2.046v-4.12h2.046v4.12Zm-4.109,0h-2.046v-4.12h2.046v4.12Zm-4.108,0H125.8v-4.12h2.047v4.12Zm-4.109,0h-2.046v-4.12h2.046v4.12Zm-4.109,0h-2.046v-4.12h2.046v4.12Zm-4.108,0H113.47v-4.12h2.047v4.12Zm-4.109,0h-2.046v-4.12h2.046v4.12Zm-4.109,0h-2.046v-4.12H107.3v4.12Zm49.3,0h-2.046v-4.12H156.6v4.12Zm-55.458-4.12h2.046v4.12h-2.046v-4.12Zm59.824,14.439a4.147,4.147,0,0,0-2.314.652,2.392,2.392,0,0,1-2.587,0c-0.143-.082-0.3-0.172-0.484-0.259v-4.512h5.132a1.037,1.037,0,0,0,0-2.073H97.032a1.037,1.037,0,0,0,0,2.073h5.131v4.235a4.5,4.5,0,0,0-1.258.536,2.39,2.39,0,0,1-2.586,0,4.957,4.957,0,0,0-.965-0.453,1.036,1.036,0,0,0-.637,1.971,3.024,3.024,0,0,1,.581.283,4.432,4.432,0,0,0,4.628,0c0.084-.048.161-0.092,0.237-0.132V123.8h-0.894a1.165,1.165,0,0,0-1.16,1.166v4A1.035,1.035,0,0,0,101.14,130h8.218a1.035,1.035,0,0,0,1.031-1.036v-4a1.164,1.164,0,0,0-1.16-1.166h-0.894v-6.441a5.457,5.457,0,0,0,.8-0.394,2.385,2.385,0,0,1,2.586,0,4.432,4.432,0,0,0,4.628,0,2.386,2.386,0,0,1,2.587,0,4.434,4.434,0,0,0,4.629,0,2.171,2.171,0,0,1,1.294-.381,2.018,2.018,0,0,1,.927.184v1.96a4.647,4.647,0,0,0-.927-0.088,4.154,4.154,0,0,0-2.315.652,2.392,2.392,0,0,1-2.587,0,4.147,4.147,0,0,0-2.314-.652,1.037,1.037,0,0,0,0,2.073,2.168,2.168,0,0,1,1.293.38,4.432,4.432,0,0,0,4.628,0,2.177,2.177,0,0,1,1.3-.38,2.019,2.019,0,0,1,.927.183v2.9h-0.894a1.164,1.164,0,0,0-1.16,1.166v4A1.035,1.035,0,0,0,124.765,130h8.217a1.035,1.035,0,0,0,1.032-1.036v-4a1.165,1.165,0,0,0-1.16-1.166h-0.9v-3.1a0.987,0.987,0,0,0,.122.008,2.172,2.172,0,0,1,1.3.38,4.436,4.436,0,0,0,4.63,0,2.174,2.174,0,0,1,1.295-.38,1.037,1.037,0,0,0,0-2.073,4.151,4.151,0,0,0-2.315.652,2.4,2.4,0,0,1-2.59,0,4.154,4.154,0,0,0-2.315-.652c-0.041,0-.082,0-0.122.008v-2.071a0.987,0.987,0,0,0,.122.008,2.172,2.172,0,0,1,1.3.38,4.436,4.436,0,0,0,4.63,0,2.395,2.395,0,0,1,2.589,0,4.436,4.436,0,0,0,4.63,0,2.4,2.4,0,0,1,2.595,0,4.231,4.231,0,0,0,1.593.6V123.8h-0.9a1.165,1.165,0,0,0-1.16,1.166v4A1.034,1.034,0,0,0,148.39,130h8.217a1.034,1.034,0,0,0,1.031-1.036v-4a1.164,1.164,0,0,0-1.16-1.166h-0.894v-6.55a4.039,4.039,0,0,0,1.777.367,4.147,4.147,0,0,0,2.314-.652,2.17,2.17,0,0,1,1.293-.38A1.037,1.037,0,0,0,160.969,114.511Zm-52.643,13.416h-6.154v-2.056h6.155v2.056h0Zm-4.1-4.128v-8.028a1.032,1.032,0,0,0,.025-0.224,1.046,1.046,0,0,0-.025-0.224v-4.931h2.046V123.8h-2.046Zm20.635-9.288a4.154,4.154,0,0,0-2.315.652,2.392,2.392,0,0,1-2.587,0,4.432,4.432,0,0,0-4.628,0,2.386,2.386,0,0,1-2.587,0,4.146,4.146,0,0,0-2.313-.652,4.026,4.026,0,0,0-2.1.529v-4.648h17.453V114.6A4.647,4.647,0,0,0,124.861,114.511Zm7.09,13.416H125.8v-2.056h6.155v2.056h0Zm-4.1-4.128V110.392H129.9V123.8h-2.046Zm20.988-8.636a4.441,4.441,0,0,0-4.633,0,2.4,2.4,0,0,1-2.59,0,4.436,4.436,0,0,0-4.63,0,2.391,2.391,0,0,1-2.59,0,4.147,4.147,0,0,0-2.314-.652,0.974,0.974,0,0,0-.122.008v-4.127h17.453v5.05A3.147,3.147,0,0,1,148.839,115.163Zm6.737,12.764h-6.155v-2.056h6.155v2.056Zm-4.1-4.128V110.392h2.047v5.176a0.961,0.961,0,0,0,0,.142V123.8h-2.047Z" transform="translate(-96 -98)"/>
</svg>
