<svg xmlns="http://www.w3.org/2000/svg" width="75" height="75" viewBox="0 0 75 75">
  <defs>
    <style>
      .cls-1 {
        fill: #fff;
        fill-rule: evenodd;
      }
    </style>
  </defs>
  <path id="play.svg" class="cls-1" d="M1041.87,389.031l-15.58-11.323a1.874,1.874,0,0,0-2.98,1.515v22.639a1.869,1.869,0,0,0,1.02,1.675,1.907,1.907,0,0,0,.86.2,1.869,1.869,0,0,0,1.1-.364l15.58-11.313a1.878,1.878,0,0,0,.77-1.516A1.855,1.855,0,0,0,1041.87,389.031Zm-12.37-36.037A37.5,37.5,0,1,0,1067,390.5,37.5,37.5,0,0,0,1029.5,352.994Zm0,68.749a31.244,31.244,0,1,1,31.23-31.239A31.236,31.236,0,0,1,1029.5,421.743Z" transform="translate(-992 -353)"/>
</svg>
