<svg xmlns="http://www.w3.org/2000/svg" viewBox="0 0 250.313 250.313"><path d="M244.2 214.6l-54.4-54.37c-.28-.3-.62-.5-.92-.76 10.7-16.23 16.94-35.66 16.94-56.56C205.82 46.08 159.75 0 102.92 0S0 46.08 0 102.9c0 56.85 46.07 102.92 102.9 102.92 20.9 0 40.33-6.24 56.56-16.94.27.3.47.64.76.93l54.38 54.4c8.17 8.15 21.42 8.15 29.6 0 8.15-8.18 8.15-21.43 0-29.6zm-141.3-44.45c-37.12 0-67.23-30.1-67.23-67.24 0-37.12 30.1-67.23 67.24-67.23 37.14 0 67.25 30.1 67.25 67.24 0 37.14-30.1 67.25-67.24 67.25z" fill="#fff" clip-rule="evenodd"/></svg>