<svg xmlns="http://www.w3.org/2000/svg" viewBox="0 0 112.196 112.196"><circle cx="56.1" cy="56.1" r="56.1" fill="#fff"/><path d="M53.98 80.7h4.4s1.33-.14 2-.88c.64-.67.62-1.93.62-1.93s-.1-5.92 2.65-6.8c2.7-.84 6.18 5.72 9.85 8.25 2.8 1.9 4.9 1.5 4.9 1.5l9.84-.15s5.14-.32 2.7-4.36c-.2-.33-1.42-3-7.3-8.46-6.18-5.73-5.35-4.8 2.08-14.7 4.52-6.04 6.33-9.72 5.77-11.3-.55-1.5-3.88-1.1-3.88-1.1l-11.08.07s-.82-.1-1.43.25c-.58.36-.96 1.2-.96 1.2s-1.76 4.66-4.1 8.63c-4.93 8.37-6.9 8.8-7.7 8.3-1.88-1.22-1.4-4.88-1.4-7.47 0-8.12 1.22-11.5-2.4-12.38-1.2-.3-2.1-.48-5.18-.5-3.95-.06-7.3 0-9.2.93-1.25.62-2.22 2-1.63 2.08.73.1 2.4.44 3.27 1.64 1.13 1.54 1.1 5 1.1 5s.65 9.57-1.53 10.75c-1.5.82-3.54-.84-7.94-8.44-2.25-3.9-3.95-8.2-3.95-8.2s-.33-.8-.9-1.23c-.72-.52-1.72-.7-1.72-.7l-10.52.08s-1.58.05-2.16.73c-.52.62-.04 1.9-.04 1.9s8.24 19.27 17.57 28.98C44.27 81.28 54 80.7 54 80.7z" fill-rule="evenodd" clip-rule="evenodd" fill="#262a39"/></svg>