<svg xmlns="http://www.w3.org/2000/svg" width="144" height="79" viewBox="0 0 144 79">
  <defs>
    <style>
      .cls-1 {
        fill: #3f382b;
        fill-rule: evenodd;
      }
    </style>
  </defs>
  <path id="wave.svg" class="cls-1" d="M1215.29,2260.94a16.554,16.554,0,0,1-13.26-7.14,4.279,4.279,0,0,0-7.14,0,15.864,15.864,0,0,1-26.5,0,4.279,4.279,0,0,0-7.14,0,15.864,15.864,0,0,1-26.5,0,4.279,4.279,0,0,0-7.14,0,15.874,15.874,0,0,1-26.51,0,4.279,4.279,0,0,0-7.14,0,16.523,16.523,0,0,1-13.25,7.14c-2.6,0-4.71,2.48-4.71,5.53s2.11,5.53,4.71,5.53a24.2,24.2,0,0,0,15.21-5.53c0.55-.44,1.09-0.91,1.62-1.4,0.52,0.49,1.06.96,1.61,1.4a23.668,23.668,0,0,0,30.41,0c0.55-.44,1.09-0.91,1.62-1.4,0.52,0.49,1.07.96,1.62,1.4a23.655,23.655,0,0,0,30.4,0c0.55-.44,1.1-0.91,1.62-1.4,0.53,0.49,1.07.96,1.62,1.4a23.668,23.668,0,0,0,30.41,0c0.55-.44,1.09-0.91,1.61-1.4,0.53,0.49,1.07.96,1.62,1.4a24.2,24.2,0,0,0,15.21,5.53c2.6,0,4.71-2.47,4.71-5.53S1217.89,2260.94,1215.29,2260.94Zm0-29.44a16.554,16.554,0,0,1-13.26-7.14,4.279,4.279,0,0,0-7.14,0,15.864,15.864,0,0,1-26.5,0,4.279,4.279,0,0,0-7.14,0,15.864,15.864,0,0,1-26.5,0,4.279,4.279,0,0,0-7.14,0,15.874,15.874,0,0,1-26.51,0,4.279,4.279,0,0,0-7.14,0,16.523,16.523,0,0,1-13.25,7.14c-2.6,0-4.71,2.48-4.71,5.53s2.11,5.53,4.71,5.53a24.2,24.2,0,0,0,15.21-5.53c0.55-.44,1.09-0.91,1.62-1.4,0.52,0.49,1.06.96,1.61,1.4a23.668,23.668,0,0,0,30.41,0c0.55-.44,1.09-0.91,1.62-1.4,0.52,0.49,1.07.96,1.62,1.4a23.655,23.655,0,0,0,30.4,0c0.55-.44,1.1-0.91,1.62-1.4,0.53,0.49,1.07.96,1.62,1.4a23.668,23.668,0,0,0,30.41,0c0.55-.44,1.09-0.91,1.61-1.4,0.53,0.49,1.07.96,1.62,1.4a24.2,24.2,0,0,0,15.21,5.53c2.6,0,4.71-2.47,4.71-5.53S1217.89,2231.5,1215.29,2231.5Zm-134.58-18.38a24.2,24.2,0,0,0,15.21-5.53c0.55-.44,1.09-0.91,1.62-1.4,0.52,0.49,1.06.96,1.61,1.4a23.668,23.668,0,0,0,30.41,0c0.55-.44,1.09-0.91,1.62-1.4,0.52,0.49,1.07.96,1.62,1.4a23.655,23.655,0,0,0,30.4,0c0.55-.44,1.1-0.91,1.62-1.4,0.53,0.49,1.07.96,1.62,1.4a23.668,23.668,0,0,0,30.41,0c0.55-.44,1.09-0.91,1.61-1.4,0.53,0.49,1.07.96,1.62,1.4a24.2,24.2,0,0,0,15.21,5.53c2.6,0,4.71-2.47,4.71-5.53s-2.11-5.53-4.71-5.53a16.571,16.571,0,0,1-13.26-7.13,4.279,4.279,0,0,0-7.14,0,15.87,15.87,0,0,1-26.5-.01,4.291,4.291,0,0,0-7.14,0,15.864,15.864,0,0,1-26.5,0,4.291,4.291,0,0,0-7.14,0,15.88,15.88,0,0,1-26.51.01,4.27,4.27,0,0,0-7.13,0,16.571,16.571,0,0,1-13.26,7.13c-2.6,0-4.71,2.48-4.71,5.53S1078.11,2213.12,1080.71,2213.12Z" transform="translate(-1076 -2193)"/>
</svg>
